<svg width="17" height="16" viewBox="0 0 17 16" fill="none" xmlns="http://www.w3.org/2000/svg">
<path d="M7.41923 0.0571537C4.24142 0.406979 1.50858 2.37077 0.453243 5.06602C-0.117739 6.52495 -0.149242 8.16277 0.358736 9.67339C0.634382 10.4923 1.20536 11.4702 1.78422 12.1102C1.94961 12.2891 2.0835 12.472 2.0835 12.5117C2.0835 12.6668 1.92205 13.5254 1.81179 13.9747C1.70547 14.396 1.49676 15.044 1.31169 15.5369C1.22899 15.7556 1.26049 15.9186 1.39438 15.9822C1.4692 16.018 1.61883 16.0021 2.09137 15.9146C3.31997 15.692 4.5525 15.3342 5.50939 14.9168L6.0213 14.6942L6.26939 14.7578C8.3013 15.2626 10.66 15.0202 12.5463 14.1058C13.511 13.6407 14.2671 13.0921 14.9798 12.3488C15.5469 11.7564 15.8973 11.2715 16.236 10.6076C16.8306 9.43884 17.0826 8.23035 16.9763 7.04572C16.8857 6.03599 16.7125 5.39995 16.299 4.54526C15.1058 2.08058 12.5226 0.371202 9.51808 0.0531784C8.82109 -0.0183768 8.11228 -0.0183768 7.41923 0.0571537ZM9.333 1.10663C10.5734 1.23384 11.8532 1.65522 12.7943 2.25152L13.0897 2.43835L12.9322 2.46618C12.8455 2.48208 12.5463 2.53376 12.2627 2.58146C11.9713 2.62917 11.6248 2.71265 11.4634 2.78023C11.0932 2.92731 10.8609 2.98297 10.093 3.11415L9.45901 3.22149L8.91166 3.03465L8.36824 2.84383L7.72638 2.87166C7.23021 2.89154 7.01757 2.91936 6.76555 2.99092C6.46628 3.07838 6.43084 3.08235 6.2812 3.03067C5.61965 2.79215 4.73364 2.6729 3.98152 2.71265C3.69012 2.72855 3.54442 2.72457 3.56017 2.69675C3.57199 2.67687 3.75706 2.54569 3.96577 2.40258C5.48576 1.39285 7.4586 0.915817 9.333 1.10663Z" fill="black"/>
</svg>
