<svg width="17" height="16" viewBox="0 0 17 16" fill="none" xmlns="http://www.w3.org/2000/svg">
<path d="M7.41994 0.0571537C4.24183 0.406979 1.50872 2.37077 0.453287 5.06602C-0.11775 6.52495 -0.149256 8.16277 0.358771 9.67339C0.634444 10.4923 1.20548 11.4702 1.7844 12.1102C1.9498 12.2891 2.0837 12.472 2.0837 12.5117C2.0837 12.6668 1.92223 13.5254 1.81196 13.9747C1.70563 14.396 1.49691 15.044 1.31181 15.5369C1.22911 15.7556 1.26062 15.9186 1.39451 15.9822C1.46934 16.018 1.61899 16.0021 2.09157 15.9146C3.32029 15.692 4.55294 15.3342 5.50992 14.9168L6.02189 14.6942L6.26999 14.7578C8.3021 15.2626 10.6611 15.0202 12.5475 14.1058C13.5123 13.6407 14.2685 13.0921 14.9813 12.3488C15.5484 11.7564 15.8989 11.2715 16.2376 10.6076C16.9897 9.13275 17.1827 7.64201 16.8283 6.04394C16.1273 2.87166 13.1579 0.438782 9.519 0.0531784C8.82194 -0.0183768 8.11307 -0.0183768 7.41994 0.0571537ZM9.3339 1.10663C11.8425 1.36502 13.9967 2.66892 15.1388 4.62079C15.2412 4.7957 15.3672 5.03819 15.4223 5.15745C15.5169 5.36814 15.6744 5.79748 15.6586 5.79748C15.6547 5.79748 15.3869 5.76965 15.06 5.73785C14.2566 5.65834 13.1933 5.65834 12.8074 5.74182C12.638 5.7776 12.2009 5.90083 11.8347 6.02009C11.0588 6.26656 9.97977 6.52893 9.88525 6.49315C9.73954 6.43352 9.18425 6.4057 8.77074 6.43352C8.40843 6.46135 8.2509 6.49315 7.91222 6.61241L7.49871 6.76347L6.37632 6.76745C5.30907 6.7754 5.23031 6.77937 4.78136 6.88273C4.52144 6.94236 4.24576 6.99006 4.167 6.99006C4.08824 6.99006 3.94646 7.02187 3.85194 7.05764C3.70623 7.1133 3.5487 7.12522 2.79257 7.11727C2.30424 7.1133 1.72138 7.09342 1.49297 7.07752L1.07946 7.04969L1.09127 6.89068C1.11096 6.60844 1.22123 6.10755 1.34332 5.73785C1.77652 4.43793 2.77682 3.17776 4.04098 2.35487C5.52174 1.3849 7.49871 0.919792 9.3339 1.10663Z" fill="black"/>
</svg>
