<svg width="17" height="16" viewBox="0 0 17 16" fill="none" xmlns="http://www.w3.org/2000/svg">
<path d="M7.41923 0.0571537C4.24142 0.406979 1.50858 2.37077 0.453243 5.06602C-0.117739 6.52495 -0.149242 8.16277 0.358736 9.67339C0.634382 10.4923 1.20536 11.4702 1.78422 12.1102C1.94961 12.2891 2.0835 12.472 2.0835 12.5117C2.0835 12.6668 1.92205 13.5254 1.81179 13.9747C1.70547 14.396 1.49676 15.044 1.31169 15.5369C1.22899 15.7556 1.26049 15.9186 1.39438 15.9822C1.4692 16.018 1.61883 16.0021 2.09137 15.9146C3.31997 15.692 4.5525 15.3342 5.50939 14.9168L6.0213 14.6942L6.26939 14.7578C8.3013 15.2626 10.66 15.0202 12.5463 14.1058C13.511 13.6407 14.2671 13.0921 14.9798 12.3488C15.5469 11.7564 15.8973 11.2715 16.236 10.6076C16.8306 9.43884 17.0826 8.23035 16.9763 7.04572C16.8857 6.03599 16.7125 5.39995 16.299 4.54526C15.1058 2.08058 12.5226 0.371202 9.51808 0.0531784C8.82109 -0.0183768 8.11228 -0.0183768 7.41923 0.0571537ZM9.333 1.10663C12.1092 1.38888 14.4561 2.97502 15.4524 5.23298C15.5823 5.52716 15.5705 5.55896 15.2476 5.65039C15.0822 5.70207 14.8853 5.71002 14.2238 5.69014C13.5189 5.67424 13.3574 5.65834 13.07 5.57486C12.4911 5.41187 12.0304 5.35622 11.0026 5.32044C10.2544 5.29659 9.96699 5.27274 9.8016 5.22106C9.52989 5.13758 8.2501 5.09385 7.63581 5.15348L7.22627 5.19323L6.83643 5.03422C6.62379 4.94676 6.11581 4.7957 5.71416 4.69632C4.26504 4.34649 4.04452 4.27096 3.31603 3.89729L2.63873 3.55144L2.88287 3.30099C4.42649 1.71485 6.93094 0.864138 9.333 1.10663Z" fill="black"/>
</svg>
