<svg width="17" height="16" viewBox="0 0 17 16" fill="none" xmlns="http://www.w3.org/2000/svg">
<path d="M7.41994 0.0571537C4.24183 0.406979 1.50872 2.37077 0.453287 5.06602C-0.11775 6.52495 -0.149256 8.16277 0.358771 9.67339C0.634444 10.4923 1.20548 11.4702 1.7844 12.1102C1.9498 12.2891 2.0837 12.472 2.0837 12.5117C2.0837 12.6668 1.92223 13.5254 1.81196 13.9747C1.70563 14.396 1.49691 15.044 1.31181 15.5369C1.22911 15.7556 1.26062 15.9186 1.39451 15.9822C1.46934 16.018 1.61899 16.0021 2.09157 15.9146C3.32029 15.692 4.55294 15.3342 5.50992 14.9168L6.02189 14.6942L6.26999 14.7578C8.3021 15.2626 10.6611 15.0202 12.5475 14.1058C13.5123 13.6407 14.2685 13.0921 14.9813 12.3488C15.5484 11.7564 15.8989 11.2715 16.2376 10.6076C16.9897 9.13275 17.1827 7.64201 16.8283 6.04394C16.1273 2.87166 13.1579 0.438782 9.519 0.0531784C8.82194 -0.0183768 8.11307 -0.0183768 7.41994 0.0571537ZM9.3339 1.10663C12.6932 1.44851 15.3278 3.65479 15.8555 6.56868C15.9461 7.06559 15.9461 8.04352 15.8555 8.5126C15.7059 9.26791 15.3672 10.0908 14.9458 10.703L14.7332 11.017L14.1503 11.029C13.6383 11.0329 13.4729 11.0568 12.8546 11.188L12.1458 11.339L11.0037 11.343C9.86556 11.343 9.85768 11.343 9.24333 11.2158C8.90464 11.1442 8.50295 11.0767 8.3533 11.0687C8.19971 11.0568 8.0343 11.029 7.98704 11.0051C7.93979 10.9773 7.60504 10.9415 7.22697 10.9256C6.75833 10.9018 6.40783 10.862 6.07308 10.7904C5.80135 10.7348 5.37602 10.6791 5.10823 10.6632C4.84043 10.6513 4.55688 10.6155 4.47418 10.5837C4.39541 10.5519 4.2497 10.5281 4.15519 10.5281C3.91496 10.5281 2.92647 10.2657 2.72562 10.1464C2.55628 10.0471 2.17034 9.97551 1.80015 9.97153H1.61899L1.49691 9.68134C0.973128 8.40924 0.921932 6.97019 1.35907 5.69412C1.79227 4.41805 2.79651 3.16583 4.04098 2.35487C5.52174 1.3849 7.49871 0.919792 9.3339 1.10663Z" fill="black"/>
</svg>
