<svg width="17" height="16" viewBox="0 0 17 16" fill="none" xmlns="http://www.w3.org/2000/svg">
<path d="M7.41994 0.0571537C4.24183 0.406979 1.50872 2.37077 0.453287 5.06602C-0.11775 6.52495 -0.149256 8.16277 0.358771 9.67339C0.634444 10.4923 1.20548 11.4702 1.7844 12.1102C1.9498 12.2891 2.0837 12.472 2.0837 12.5117C2.0837 12.6668 1.92223 13.5254 1.81196 13.9747C1.70563 14.396 1.49691 15.044 1.31181 15.5369C1.22911 15.7556 1.26062 15.9186 1.39451 15.9822C1.46934 16.018 1.61899 16.0021 2.09157 15.9146C3.32029 15.692 4.55294 15.3342 5.50992 14.9168L6.02189 14.6942L6.26999 14.7578C8.3021 15.2626 10.6611 15.0202 12.5475 14.1058C13.5123 13.6407 14.2685 13.0921 14.9813 12.3488C15.5484 11.7564 15.8989 11.2715 16.2376 10.6076C16.9897 9.13275 17.1827 7.64201 16.8283 6.04394C16.1273 2.87166 13.1579 0.438782 9.519 0.0531784C8.82194 -0.0183768 8.11307 -0.0183768 7.41994 0.0571537ZM9.3339 1.10663C12.6932 1.44851 15.3278 3.65479 15.8555 6.56868C15.9461 7.06559 15.9461 8.04352 15.8555 8.5126C15.698 9.30766 15.3593 10.1027 14.8868 10.7904C14.5953 11.2158 14.0715 11.8041 13.7683 12.0466L13.5753 12.1977H12.4608C11.5787 12.1977 11.2833 12.1858 11.0391 12.1341C10.7753 12.0784 10.5744 12.0705 9.74348 12.0943C9.20394 12.1063 8.63685 12.1381 8.48326 12.1619C7.92797 12.2534 4.27333 12.1699 3.84407 12.0546C3.71017 12.0188 3.46994 11.9711 3.31635 11.9433L3.02886 11.8995L2.67049 11.502C1.89073 10.6394 1.40239 9.69326 1.17004 8.60801C1.05189 8.05544 1.04402 6.94236 1.15428 6.43352C1.56779 4.51743 2.87527 2.89551 4.78923 1.92952C6.1164 1.25769 7.80589 0.951594 9.3339 1.10663Z" fill="black"/>
</svg>
