<svg width="17" height="16" viewBox="0 0 17 16" fill="none" xmlns="http://www.w3.org/2000/svg">
<path d="M7.41994 0.0571537C4.24183 0.406979 1.50872 2.37077 0.453287 5.06602C-0.11775 6.52495 -0.149256 8.16277 0.358771 9.67339C0.634444 10.4923 1.20548 11.4702 1.7844 12.1102C1.9498 12.2891 2.0837 12.472 2.0837 12.5117C2.0837 12.6668 1.92223 13.5254 1.81196 13.9747C1.70563 14.396 1.49691 15.044 1.31181 15.5369C1.22911 15.7556 1.26062 15.9186 1.39451 15.9822C1.46934 16.018 1.61899 16.0021 2.09157 15.9146C3.32029 15.692 4.55294 15.3342 5.50992 14.9168L6.02189 14.6942L6.26999 14.7578C8.3021 15.2626 10.6611 15.0202 12.5475 14.1058C13.5123 13.6407 14.2685 13.0921 14.9813 12.3488C15.5484 11.7564 15.8989 11.2715 16.2376 10.6076C16.9897 9.13275 17.1827 7.64201 16.8283 6.04394C16.1273 2.87166 13.1579 0.438782 9.519 0.0531784C8.82194 -0.0183768 8.11307 -0.0183768 7.41994 0.0571537ZM9.3339 1.10663C12.6774 1.44851 15.3475 3.67467 15.8516 6.54483C15.9146 6.91453 15.9698 7.78115 15.9382 7.87258C15.9186 7.91631 15.824 7.92028 15.4105 7.89643C14.3512 7.83283 13.5478 7.95208 12.453 8.32576C12.0276 8.47285 11.8425 8.51658 11.5944 8.5285C11.4093 8.53645 11.11 8.58813 10.8659 8.65571C10.1846 8.84653 10.0034 8.87435 9.42842 8.87435C8.93615 8.87038 8.79043 8.85448 8.05005 8.69944L7.22304 8.5285L6.04158 8.4967C5.18699 8.47682 4.78923 8.45297 4.60414 8.40527C4.43873 8.36551 4.16306 8.34166 3.82832 8.34166C3.41874 8.34166 3.20214 8.31781 2.84377 8.24228C2.57203 8.18265 2.11914 8.12302 1.74895 8.09917C1.36695 8.07134 1.10703 8.03557 1.08734 8.00774C1.02826 7.92426 1.09127 6.71577 1.17398 6.35004C1.53629 4.75197 2.56809 3.31292 4.04098 2.35487C5.52174 1.3849 7.49871 0.919792 9.3339 1.10663Z" fill="black"/>
</svg>
