<svg version="1.1" id="Layer_1" xmlns="http://www.w3.org/2000/svg" xmlns:xlink="http://www.w3.org/1999/xlink" x="0px" y="0px"
	 width="100%" viewBox="0 0 492 133" enable-background="new 0 0 492 133" xml:space="preserve">
<path fill="#FFF" opacity="1.000000" stroke="none" 
	d="
M352.222412,133.703323 
	C324.979095,134.000000 297.958221,134.000000 270.468658,134.000000 
	C268.661102,132.002792 269.875000,130.956909 271.481598,130.088608 
	C272.812256,129.369446 274.281586,129.086853 275.737671,128.716110 
	C288.190521,125.545448 295.108521,117.186646 295.328949,103.732887 
	C295.494873,93.605453 291.350769,83.592369 278.759949,78.981850 
	C274.357422,77.369720 269.885101,76.140793 265.273071,75.409546 
	C261.138275,74.753960 257.118866,73.684319 253.278946,72.049347 
	C250.637833,70.924805 248.954681,68.913857 249.067673,65.868286 
	C249.182281,62.779263 251.114960,60.990143 253.842316,60.128220 
	C260.869934,57.907280 267.662231,59.252209 274.254364,61.932137 
	C282.116608,65.128418 285.673431,63.771187 289.212433,55.957066 
	C291.391693,51.145336 290.596375,47.677979 285.939453,45.520351 
	C270.603455,38.414986 254.783112,37.486771 238.936340,43.488743 
	C232.237000,46.026123 227.627960,51.157589 226.398239,58.558304 
	C222.887939,79.684326 231.224426,89.416206 249.138321,95.147018 
	C253.736526,96.618027 258.577484,97.165688 263.219849,98.518051 
	C264.667847,98.939873 266.116638,99.321861 267.370300,100.175682 
	C271.236725,102.809036 271.019440,107.186737 266.811432,109.240486 
	C261.976837,111.600060 256.884674,112.037796 251.769943,110.284332 
	C247.679901,108.882149 243.711502,107.188652 239.931229,105.009979 
	C233.299088,101.187729 229.709808,102.230324 225.950851,108.757767 
	C225.036194,110.346092 224.180328,111.974037 223.530884,113.687637 
	C221.883087,118.035370 222.727020,120.497459 226.616013,123.022156 
	C230.707504,125.678322 235.160248,127.437653 239.857910,128.728470 
	C242.149124,129.358047 245.032028,129.804901 244.228058,133.709869 
	C220.312439,134.000000 196.624878,134.000000 172.468658,134.000000 
	C170.365829,130.338882 173.393570,130.268280 175.473083,129.577362 
	C191.061325,124.398254 202.019867,114.437378 206.631943,98.450432 
	C211.701889,80.876457 207.423889,65.249191 194.502014,52.603222 
	C181.738190,40.111904 165.826828,35.580685 148.868576,41.234932 
	C130.490158,47.362686 117.202377,61.794468 116.484909,82.571495 
	C115.719604,104.734253 126.435799,120.785927 146.453217,128.418640 
	C148.771896,129.302765 152.005798,129.548508 151.228271,133.710419 
	C102.240494,134.000000 53.480888,133.963287 4.721681,134.084351 
	C1.544930,134.092224 0.915646,133.296844 0.923900,130.232605 
	C1.036849,88.296402 1.049842,46.359619 0.900613,4.423645 
	C0.889291,1.241903 1.769798,0.709366 4.571038,0.940472 
	C7.711535,1.199568 10.889872,1.000000 14.525872,1.000000 
	C15.110669,1.221397 15.221339,1.442794 15.355472,2.035429 
	C15.107648,3.806071 14.288277,4.738194 12.991776,5.311913 
	C8.641582,7.236932 7.171986,10.799833 7.351195,15.711972 
	C3.738749,45.559261 6.206413,75.113380 5.530570,104.602386 
	C5.412450,109.756279 7.392369,114.717079 7.333735,120.302979 
	C7.991139,126.718712 11.600882,129.648148 18.173321,129.454803 
	C19.662409,129.411011 21.111980,129.036758 22.613171,128.971390 
	C31.127174,128.600693 33.721565,125.551445 32.901001,116.616714 
	C32.989239,110.362648 35.113190,104.695900 34.582741,98.323181 
	C34.735744,97.593925 34.849510,97.314476 35.250210,96.684189 
	C42.579918,95.252892 49.650776,94.398918 57.153725,93.678467 
	C81.412895,93.164154 99.626961,77.455223 102.187614,53.802788 
	C104.075172,36.367641 95.324539,16.921207 74.042664,8.540465 
	C70.953850,7.324102 67.764709,6.370091 64.605873,5.342816 
	C62.780441,4.749172 61.088673,4.059656 61.773460,1.301919 
	C204.202988,1.000000 346.406006,1.021158 488.608856,0.890751 
	C492.590210,0.887100 493.145630,2.041874 493.089203,5.602114 
	C492.870087,19.419300 493.000000,33.242023 493.000000,47.531342 
	C490.919098,49.541290 489.772430,48.174965 488.465790,46.703671 
	C481.752319,39.144146 470.116455,39.121536 463.804993,46.700024 
	C461.689697,49.239929 459.577057,49.547745 456.912445,47.675964 
	C440.501404,36.147778 422.444641,42.410690 411.055328,56.484341 
	C396.127594,74.930305 396.583405,97.775620 411.857391,115.231956 
	C417.078888,121.199532 423.383240,125.713097 431.088623,128.117416 
	C439.977966,130.891174 448.188477,129.508728 455.762360,124.272179 
	C460.382446,121.077835 461.081421,121.068764 464.728455,125.278618 
	C469.821259,131.157440 483.212677,131.037506 488.105408,125.003571 
	C489.268616,123.569099 490.084778,121.805496 492.709412,122.770554 
	C493.000000,126.655418 494.421631,131.694000 492.594604,133.571823 
	C490.816864,135.399002 485.711670,133.998306 482.067505,133.998520 
	C442.024109,134.000870 401.980713,134.000000 361.468658,134.000000 
	C359.495697,130.821259 361.923737,130.252411 364.004456,129.742142 
	C370.248566,128.210846 375.915466,125.550735 381.008392,121.623436 
	C386.821869,117.140480 387.447144,113.248306 383.363007,107.061859 
	C381.971558,104.954140 380.303711,103.114120 378.452911,101.428215 
	C373.623108,97.028732 370.719147,96.683685 364.989685,99.993912 
	C358.946075,103.485680 352.980865,104.916847 346.064331,101.876038 
	C337.494934,98.108566 334.644989,90.285973 336.366241,81.729614 
	C338.090057,73.160492 345.084778,67.786865 353.895691,67.604836 
	C357.834137,67.523468 361.323883,68.363441 364.787750,70.436394 
	C374.216644,76.079163 386.034241,68.969818 386.003876,57.841549 
	C385.994995,54.580173 384.253754,52.221935 381.797119,50.261833 
	C370.656525,41.372971 358.096558,38.579487 344.235321,41.589462 
	C323.067505,46.186085 308.724518,63.415394 308.447052,84.473892 
	C308.147614,107.197685 324.170013,125.928413 347.089325,129.714523 
	C349.383575,130.093521 352.458344,129.578384 352.222412,133.703323 
z"/>
<path fill="#1F292E" opacity="1.000000" stroke="none" 
	d="
M61.666668,1.000000 
	C64.574448,4.363481 68.782608,3.813087 72.190453,4.994304 
	C92.598297,12.068027 105.490303,30.131653 104.991119,51.619598 
	C104.443542,75.190063 83.208260,96.061203 59.379105,96.014130 
	C51.482014,97.187241 43.971432,96.052048 36.233028,96.994667 
	C35.960300,97.376740 36.114639,97.586449 36.088745,97.714035 
	C34.853550,104.206879 35.776871,110.629555 35.709778,117.429153 
	C35.906666,127.883308 32.545002,131.340714 22.719524,131.752441 
	C18.210182,131.941391 13.753778,132.145447 9.584384,130.058929 
	C7.019228,128.775238 4.493556,127.381111 4.990948,123.421906 
	C4.360355,122.150620 4.504914,121.127388 4.505875,120.141739 
	C4.540052,85.052017 4.416160,49.962196 4.781084,14.426155 
	C5.222328,6.993106 6.979424,4.796659 15.032318,2.040980 
	C15.955451,1.739124 16.197962,1.684463 16.814232,1.704360 
	C17.443935,1.827392 17.699879,1.875866 18.353214,1.951321 
	C31.065527,2.027554 43.380497,1.987590 56.093781,1.997067 
	C57.009434,1.993479 57.526272,1.977062 58.409508,1.879869 
	C58.997120,1.704013 59.217831,1.593455 59.719273,1.241449 
	C60.444447,1.000000 60.888889,1.000000 61.666668,1.000000 
z"/>
<path fill="#A54824" opacity="1.000000" stroke="none" 
	d="
M493.000000,122.625000 
	C492.551361,123.029419 491.782623,122.921188 491.701965,123.108818 
	C490.406281,126.122391 489.547455,129.522720 485.860291,130.570328 
	C480.904358,131.978394 475.926453,132.626602 470.740601,131.412262 
	C466.719910,130.470749 463.125153,129.444351 461.815155,124.863625 
	C461.240417,122.853928 460.081604,123.503784 458.936584,124.620605 
	C446.277130,136.968399 426.825226,131.986572 415.851654,122.580048 
	C406.895172,114.902580 400.655243,105.798378 398.634644,94.151245 
	C396.275909,80.555176 398.735687,68.069473 407.417999,56.894421 
	C412.412445,50.466064 418.402740,45.587200 425.668549,42.115128 
	C436.578644,36.901562 450.394196,38.327305 460.598145,47.751350 
	C463.065826,39.654922 469.212006,38.912998 476.430420,38.823559 
	C484.052673,38.729115 489.316528,41.229500 492.641541,48.140137 
	C493.000000,48.444447 493.000000,48.888889 493.000000,49.666668 
	C491.912659,51.236115 492.010162,52.755634 492.009338,54.240097 
	C491.997864,74.930107 491.988281,95.620117 492.014160,116.310120 
	C492.015381,117.302177 492.022003,118.300583 492.732574,119.613846 
	C493.000000,120.750000 493.000000,121.500000 493.000000,122.625000 
z"/>
<path fill="#40312D" opacity="1.000000" stroke="none" 
	d="
M151.468536,134.000000 
	C150.397522,131.464325 148.017807,131.697418 146.271729,131.072495 
	C113.920090,119.493866 104.964127,83.175858 121.914406,58.574154 
	C133.534317,41.708973 150.369110,33.434860 171.000748,37.488026 
	C190.819717,41.381538 204.147446,53.872871 209.661789,73.447601 
	C215.570557,94.422493 205.020096,118.047409 185.767532,128.155640 
	C181.454239,130.420258 176.621506,131.695511 172.013947,133.713104 
	C165.312363,134.000000 158.624710,134.000000 151.468536,134.000000 
z"/>
<path fill="#623A2A" opacity="1.000000" stroke="none" 
	d="
M244.468658,134.000000 
	C244.141205,131.703171 242.039520,131.769547 240.862061,131.538406 
	C235.076981,130.402802 229.920914,127.930107 224.865204,125.011871 
	C220.115021,122.269989 218.584152,118.405182 220.822708,113.401794 
	C221.839798,111.128517 222.849930,108.836472 224.082214,106.677971 
	C228.424973,99.071083 233.819168,98.132065 241.428848,102.778641 
	C248.333878,106.994949 255.613876,110.784584 264.170441,107.776184 
	C265.738342,107.224937 268.212067,107.113808 268.169434,104.727890 
	C268.125336,102.257187 265.730988,101.757698 263.908203,101.235123 
	C255.665329,98.871971 247.243286,97.524132 239.240875,93.868149 
	C224.983749,87.354630 221.604935,72.669083 223.325150,60.648983 
	C225.239227,47.274349 233.907150,40.929016 246.634918,38.572823 
	C261.681732,35.787327 276.008026,36.936050 289.464081,44.694214 
	C290.303436,45.178162 291.207397,45.726837 291.773590,46.477501 
	C294.343719,49.885090 293.329254,55.596336 289.288574,61.118092 
	C285.024475,66.945137 282.470703,68.160065 277.313751,65.994850 
	C271.650513,63.617069 266.103516,61.264683 259.720520,61.711468 
	C258.250122,61.814388 256.731781,61.862392 255.380997,62.272842 
	C253.589127,62.817337 251.217087,63.132751 251.155075,65.763290 
	C251.093719,68.366714 252.860519,69.225967 255.104797,70.105209 
	C260.553040,72.239655 266.340668,72.719597 271.923706,74.132553 
	C279.951691,76.164314 287.584503,78.839005 292.727386,86.146652 
	C302.599731,100.174568 298.867035,127.117195 275.592316,131.451294 
	C273.543640,131.832779 271.554932,132.207230 269.914368,133.719849 
	C261.645752,134.000000 253.291534,134.000000 244.468658,134.000000 
z"/>
<path fill="#834028" opacity="1.000000" stroke="none" 
	d="
M352.449982,134.000000 
	C352.290894,131.147888 349.981140,132.671432 349.088257,132.532196 
	C331.726410,129.824829 317.882446,121.641052 310.293671,105.501495 
	C301.052643,85.847931 306.850342,58.520710 326.594025,46.429741 
	C341.028168,37.590290 355.768982,35.412560 371.340790,41.132446 
	C377.956390,43.562500 384.628235,47.020931 388.063324,54.125092 
	C388.986420,56.034256 389.174500,57.852173 388.601898,59.881138 
	C387.067688,65.317833 383.688263,69.706108 379.805847,73.434944 
	C375.230103,77.829704 370.475891,77.680168 363.297089,72.468559 
	C354.214417,65.874825 339.794617,72.805206 338.808044,81.806488 
	C338.172333,87.606407 337.812134,93.209900 342.815643,97.121979 
	C348.709015,101.729782 355.846924,103.416206 362.036011,98.758652 
	C372.750366,90.695686 378.267487,96.390419 384.889496,105.041039 
	C391.592102,113.797020 390.075317,117.897758 381.151520,124.660393 
	C374.925446,129.378662 367.741486,131.008499 360.858521,133.701355 
	C358.299988,134.000000 355.599976,134.000000 352.449982,134.000000 
z"/>
<path fill="#B8735B" opacity="1.000000" stroke="none" 
	d="
M493.000000,119.531342 
	C491.261383,118.911095 490.968384,117.291565 490.973175,115.351067 
	C491.023254,95.055397 490.995941,74.759552 491.011810,54.463779 
	C491.012939,53.020473 490.668152,51.364632 492.781677,50.331436 
	C493.000000,73.020897 493.000000,96.041786 493.000000,119.531342 
z"/>
<path fill="#555D61" opacity="1.000000" stroke="none" 
	d="
M59.531342,1.000000 
	C60.000000,1.000000 59.753468,1.191693 59.847931,1.316023 
	C59.854885,1.843255 59.695133,2.214190 59.242157,2.771414 
	C46.772503,2.994135 34.512676,3.023479 22.253342,2.959398 
	C20.529669,2.950388 18.566763,3.673659 16.816624,1.708635 
	C16.215206,1.591791 15.939013,1.721235 15.831411,1.425339 
	C30.354227,1.000000 44.708454,1.000000 59.531342,1.000000 
z"/>
<path fill="#1F292E" opacity="1.000000" stroke="none" 
	d="
M15.750000,1.000000 
	C16.000000,1.000000 16.445078,1.026738 16.468239,1.244542 
	C16.491400,1.462347 16.275640,1.739599 16.152119,1.864488 
	C15.852397,2.113804 15.676198,2.238231 15.235703,2.176016 
	C14.971407,1.989373 14.993770,2.002770 15.002561,2.012583 
	C15.033731,1.851727 15.056109,1.681058 15.039244,1.255195 
	C15.000000,1.000000 15.500000,1.000000 15.750000,1.000000 
z"/>
<path fill="#525A5E" opacity="1.000000" stroke="none" 
	d="
M4.653737,14.236154 
	C5.008137,50.016930 5.017529,86.054092 5.013001,122.562073 
	C3.524441,122.145523 4.024882,120.672256 4.023978,119.424286 
	C3.999103,85.101959 4.004667,50.779602 4.020737,16.457258 
	C4.021044,15.802308 4.208559,15.147446 4.653737,14.236154 
z"/>
<path fill="#C0C3C5" opacity="1.000000" stroke="none" 
	d="
M36.404819,97.209503 
	C36.446373,95.083229 38.313568,96.079430 39.536499,96.055840 
	C45.690067,95.937157 51.847115,95.998695 58.467262,96.007820 
	C55.849625,98.110413 52.411045,96.731888 49.150875,96.939972 
	C45.064835,97.200775 40.951115,97.027931 36.404819,97.209503 
z"/>
<path fill="#787F83" opacity="1.000000" stroke="none" 
	d="
M35.929390,117.381897 
	C34.141006,111.389847 35.094601,104.872421 35.713860,98.107239 
	C36.037113,104.203300 36.011368,110.564980 35.929390,117.381897 
z"/>
<path fill="#FFF" opacity="1.000000" stroke="none" 
	d="
M58.377296,33.715893 
	C66.735283,34.780743 71.430656,39.395489 73.305496,46.876617 
	C74.790817,52.803482 72.139404,57.493664 67.963913,61.431347 
	C64.858612,64.359787 60.809654,64.830917 56.833572,64.941193 
	C50.190079,65.125450 43.537788,64.992462 36.417114,64.989044 
	C34.987057,54.928947 35.685188,44.852219 35.821266,34.367180 
	C36.073223,33.948742 35.945786,33.945084 35.943481,34.008789 
	C43.243801,32.811298 50.600163,33.796246 58.377296,33.715893 
z"/>
<path fill="#798084" opacity="1.000000" stroke="none" 
	d="
M35.724827,34.203552 
	C36.045452,43.982780 36.017681,54.016819 35.967468,64.517960 
	C33.990444,62.103909 35.113598,58.874256 35.072815,55.833691 
	C34.977291,48.711220 35.251759,41.583786 35.724827,34.203552 
z"/>
<path fill="#888E92" opacity="1.000000" stroke="none" 
	d="
M58.543571,33.590210 
	C51.513634,33.928547 44.199661,33.971783 36.413437,34.043755 
	C39.752102,31.809332 43.909103,33.338108 47.892723,33.066906 
	C51.327232,32.833088 54.802364,33.196011 58.543571,33.590210 
z"/>
<path fill="#FFF" opacity="1.000000" stroke="none" 
	d="
M59.242073,2.772774 
	C59.108543,2.535803 59.184917,2.077070 59.601841,1.529345 
	C59.778919,1.810572 59.615448,2.180792 59.242073,2.772774 
z"/>
<path fill="#FFF" opacity="1.000000" stroke="none" 
	d="
M15.085966,2.102847 
	C15.147586,1.964539 15.323764,1.939705 15.764269,1.952124 
	C16.028595,1.989377 15.650558,2.273432 15.650558,2.273432 
	C15.650558,2.273432 15.200526,2.216320 15.085966,2.102847 
z"/>
<path fill="#FFF" opacity="1.000000" stroke="none" 
	d="
M454.242554,96.257080 
	C448.962250,100.491028 443.450073,102.408157 437.490753,99.049812 
	C432.638275,96.315231 428.973724,92.475029 428.989594,86.236954 
	C429.007507,79.184433 433.989777,72.203888 440.687073,70.212715 
	C446.598022,68.455338 453.787170,71.856224 457.650360,78.312859 
	C460.517731,83.105141 460.313110,91.838943 454.242554,96.257080 
z"/>
<path fill="#FFF" opacity="1.000000" stroke="none" 
	d="
M145.951645,90.004234 
	C143.674469,81.419502 146.995468,73.740097 154.365280,69.892265 
	C161.141861,66.354164 170.195175,68.063942 175.326736,73.850952 
	C180.649979,79.854141 181.455048,89.711121 176.308411,95.791138 
	C172.193893,100.651855 165.978424,103.346367 159.897797,102.456528 
	C153.423813,101.509155 146.978638,98.622360 145.951645,90.004234 
z"/>
</svg>